<svg width="16" height="16" viewBox="0 0 16 16" fill="none" xmlns="http://www.w3.org/2000/svg">
<path d="M7.99982 0.320068C3.75822 0.320068 0.319824 3.75847 0.319824 8.00007C0.319824 12.2417 3.75822 
15.6801 7.99982 15.6801C12.2414 15.6801 15.6798 12.2417 15.6798 8.00007C15.6798 3.75847 12.2414 0.320068 
7.99982 0.320068ZM10.9534 8.98487C10.9534 8.98487 11.6326 9.65527 11.7998 9.96647C11.8046 9.97287 11.807 
9.97927 11.8086 9.98247C11.8766 10.0969 11.8926 10.1857 11.859 10.2521C11.803 10.3625 11.611 10.4169 
11.5454 10.4217H10.3454C10.2622 10.4217 10.0878 10.4001 9.87662 10.2545C9.71422 10.1409 9.55422 9.95447 
9.39822 9.77287C9.16542 9.50247 8.96383 9.26887 8.76062 9.26887C8.73482 9.26882 8.70916 9.27287 8.68462 
9.28087C8.53102 9.33047 8.33422 9.54967 8.33422 10.1337C8.33422 10.3161 8.19022 10.4209 8.08862 
10.4209H7.53902C7.35182 10.4209 6.37662 10.3553 5.51262 9.44407C4.45502 8.32807 3.50302 6.08967 
3.49502 6.06887C3.43502 5.92407 3.55902 5.84647 3.69422 5.84647H4.90622C5.06782 5.84647 5.12062 
5.94487 5.15742 6.03207C5.20062 6.13367 5.35902 6.53767 5.61902 6.99207C6.04062 7.73287 6.29902 
8.03367 6.50622 8.03367C6.54508 8.03321 6.58324 8.02333 6.61742 8.00487C6.88782 7.85447 6.83742 
6.89047 6.82542 6.69047C6.82542 6.65287 6.82462 6.25927 6.68622 6.07047C6.58702 5.93367 6.41822 
5.88167 6.31582 5.86247C6.35727 5.80528 6.41188 5.7589 6.47502 5.72727C6.66062 5.63447 6.99503 
5.62087 7.32702 5.62087H7.51183C7.87182 5.62567 7.96462 5.64887 8.09503 5.68167C8.35903 5.74487 
8.36462 5.91527 8.34142 6.49847C8.33422 6.66407 8.32703 6.85127 8.32703 7.07207C8.32703 7.12007 
8.32463 7.17127 8.32463 7.22567C8.31662 7.52247 8.30702 7.85927 8.51662 7.99767C8.54396 8.01481 
8.57556 8.02396 8.60783 8.02407C8.68062 8.02407 8.89982 8.02407 9.49342 7.00567C9.67649 6.67788 
9.83558 6.33725 9.96942 5.98647C9.98142 5.96567 10.0166 5.90167 10.0582 5.87687C10.0889 5.86122 
10.123 5.85326 10.1574 5.85367H11.5822C11.7374 5.85367 11.8438 5.87687 11.8638 5.93687C11.899 
6.03207 11.8574 6.32247 11.207 7.20327L10.9166 7.58647C10.327 8.35927 10.327 8.39847 10.9534 
8.98487Z" fill="currentColor"/>
</svg>
