<svg width="16" height="16" viewBox="0 0 16 16" fill="none" xmlns="http://www.w3.org/2000/svg">
<path d="M4.48578 1.54445L5.59264 1.21074C5.95794 1.10078 6.35076 1.12746 6.69784 1.2858C7.04492 
1.44415 7.32254 1.72334 7.47892 2.07131L8.25492 3.79703C8.38961 4.09641 8.42715 4.43046 8.36227 
4.75227C8.2974 5.07408 8.13336 5.36749 7.89321 5.59131L6.71206 6.69188C6.55378 6.84217 6.67378 
7.42788 7.25206 8.43017C7.83092 9.43303 8.27835 9.8296 8.48464 9.76788L10.0321 9.29474C10.3457 
9.1988 10.6816 9.20341 10.9925 9.30794C11.3034 9.41246 11.5738 9.61166 11.7658 9.8776L12.8686 
11.4062C13.0914 11.7148 13.1945 12.0939 13.1589 12.4728C13.1233 12.8518 12.9513 13.205 12.6749 
13.4667L11.8223 14.2742C11.5471 14.5348 11.2077 14.7178 10.8387 14.8044C10.4696 14.891 10.0842 
14.8782 9.72178 14.7673C7.93549 14.2205 6.28121 12.5976 4.73664 9.9216C3.18864 7.2416 2.60406 
4.98103 3.01149 3.13417C3.09367 2.76203 3.2736 2.41853 3.53275 2.1391C3.79189 1.85966 4.12088 
1.65439 4.48578 1.54445Z" fill="currentColor"/>
</svg>
